name ./resultDataOpenSim/trcMotMarkerGrf/sub09/grf-12-07.mot
datacolumns 19
datarows 27
range 1.41600000 1.52000000
endheader

                time	     ground_force_vx	     ground_force_vy	     ground_force_vz	     ground_force_px	     ground_force_py	     ground_force_pz	   l_ground_force_vx	   l_ground_force_vy	   l_ground_force_vz	   l_ground_force_px	   l_ground_force_py	   l_ground_force_pz	     ground_torque_x	     ground_torque_y	     ground_torque_z	   l_ground_torque_x	   l_ground_torque_y	   l_ground_torque_z	
          1.41600000	        -45.63515588	        441.19020141	        -11.24036098	          0.98787284	          0.00000000	          0.12009359	          0.00000000	          0.00000000	          0.00000000	          0.00000000	          0.00000000	          0.00000000	          0.00000000	          1.10760262	          0.00000000	          0.00000000	          0.00000000	          0.00000000	
          1.42000000	        -47.97896259	        436.52474843	        -12.87831716	          0.99032579	          0.00000000	          0.12028331	          0.00000000	          0.00000000	          0.00000000	          0.00000000	          0.00000000	          0.00000000	          0.00000000	          1.28726703	          0.00000000	          0.00000000	          0.00000000	          0.00000000	
          1.42400000	        -48.23481921	        432.42205181	        -15.40370711	          0.99225638	          0.00000000	          0.12050879	          0.00000000	          0.00000000	          0.00000000	          0.00000000	          0.00000000	          0.00000000	          0.00000000	          1.31151284	          0.00000000	          0.00000000	          0.00000000	          0.00000000	
          1.42800000	        -46.00885597	        428.86711874	        -18.12800982	          0.99359958	          0.00000000	          0.12074513	          0.00000000	          0.00000000	          0.00000000	          0.00000000	          0.00000000	          0.00000000	          0.00000000	          1.19111443	          0.00000000	          0.00000000	          0.00000000	          0.00000000	
          1.43200000	        -41.60971203	        425.85015915	        -20.38351904	          0.99440645	          0.00000000	          0.12096714	          0.00000000	          0.00000000	          0.00000000	          0.00000000	          0.00000000	          0.00000000	          0.00000000	          0.97188742	          0.00000000	          0.00000000	          0.00000000	          0.00000000	
          1.43600000	        -35.93669365	        423.35154174	        -21.65541613	          0.99483896	          0.00000000	          0.12115742	          0.00000000	          0.00000000	          0.00000000	          0.00000000	          0.00000000	          0.00000000	          0.00000000	          0.72185666	          0.00000000	          0.00000000	          0.00000000	          0.00000000	
          1.44000000	        -30.20783771	        421.33108017	        -21.66108279	          0.99510681	          0.00000000	          0.12129656	          0.00000000	          0.00000000	          0.00000000	          0.00000000	          0.00000000	          0.00000000	          0.00000000	          0.51449929	          0.00000000	          0.00000000	          0.00000000	          0.00000000	
          1.44400000	        -25.61520508	        419.73309396	        -20.37497803	          0.99541507	          0.00000000	          0.12135770	          0.00000000	          0.00000000	          0.00000000	          0.00000000	          0.00000000	          0.00000000	          0.00000000	          0.41242115	          0.00000000	          0.00000000	          0.00000000	          0.00000000	
          1.44800000	        -23.00894358	        418.50192518	        -18.00773109	          0.99592167	          0.00000000	          0.12131799	          0.00000000	          0.00000000	          0.00000000	          0.00000000	          0.00000000	          0.00000000	          0.00000000	          0.45426559	          0.00000000	          0.00000000	          0.00000000	          0.00000000	
          1.45200000	        -22.69496085	        417.58568558	        -14.94603735	          0.99669392	          0.00000000	          0.12117380	          0.00000000	          0.00000000	          0.00000000	          0.00000000	          0.00000000	          0.00000000	          0.00000000	          0.64644566	          0.00000000	          0.00000000	          0.00000000	          0.00000000	
          1.45600000	        -24.38309621	        416.92474379	        -11.67478108	          0.99771174	          0.00000000	          0.12094994	          0.00000000	          0.00000000	          0.00000000	          0.00000000	          0.00000000	          0.00000000	          0.00000000	          0.96096396	          0.00000000	          0.00000000	          0.00000000	          0.00000000	
          1.46000000	        -27.27678611	        416.45124202	         -8.70290559	          0.99887528	          0.00000000	          0.12069452	          0.00000000	          0.00000000	          0.00000000	          0.00000000	          0.00000000	          0.00000000	          0.00000000	          1.34050966	          0.00000000	          0.00000000	          0.00000000	          0.00000000	
          1.46400000	        -30.27645751	        416.11497205	         -6.48877318	          1.00001625	          0.00000000	          0.12046380	          0.00000000	          0.00000000	          0.00000000	          0.00000000	          0.00000000	          0.00000000	          0.00000000	          1.71112919	          0.00000000	          0.00000000	          0.00000000	          0.00000000	
          1.46800000	        -32.26296320	        415.91405405	         -5.35653866	          1.00095538	          0.00000000	          0.12030512	          0.00000000	          0.00000000	          0.00000000	          0.00000000	          0.00000000	          0.00000000	          0.00000000	          2.00057250	          0.00000000	          0.00000000	          0.00000000	          0.00000000	
          1.47200000	        -32.39774096	        415.90062108	         -5.42972053	          1.00155417	          0.00000000	          0.12024154	          0.00000000	          0.00000000	          0.00000000	          0.00000000	          0.00000000	          0.00000000	          0.00000000	          2.15768150	          0.00000000	          0.00000000	          0.00000000	          0.00000000	
          1.47600000	        -30.34799905	        416.15469728	         -6.61152511	          1.00175464	          0.00000000	          0.12027445	          0.00000000	          0.00000000	          0.00000000	          0.00000000	          0.00000000	          0.00000000	          0.00000000	          2.16662924	          0.00000000	          0.00000000	          0.00000000	          0.00000000	
          1.48000000	        -26.36446764	        416.75532242	         -8.60920288	          1.00160049	          0.00000000	          0.12039567	          0.00000000	          0.00000000	          0.00000000	          0.00000000	          0.00000000	          0.00000000	          0.00000000	          2.05089058	          0.00000000	          0.00000000	          0.00000000	          0.00000000	
          1.48400000	        -21.19270858	        417.77673557	        -10.99905893	          1.00121686	          0.00000000	          0.12058027	          0.00000000	          0.00000000	          0.00000000	          0.00000000	          0.00000000	          0.00000000	          0.00000000	          1.86550599	          0.00000000	          0.00000000	          0.00000000	          0.00000000	
          1.48800000	        -15.85166070	        419.29823968	        -13.32294053	          1.00077656	          0.00000000	          0.12078823	          0.00000000	          0.00000000	          0.00000000	          0.00000000	          0.00000000	          0.00000000	          0.00000000	          1.68074347	          0.00000000	          0.00000000	          0.00000000	          0.00000000	
          1.49200000	        -11.34375272	        421.40347334	        -15.17847913	          1.00044067	          0.00000000	          0.12097099	          0.00000000	          0.00000000	          0.00000000	          0.00000000	          0.00000000	          0.00000000	          0.00000000	          1.56321198	          0.00000000	          0.00000000	          0.00000000	          0.00000000	
          1.49600000	         -8.38125386	        424.15875837	        -16.27790472	          1.00031984	          0.00000000	          0.12108469	          0.00000000	          0.00000000	          0.00000000	          0.00000000	          0.00000000	          0.00000000	          0.00000000	          1.56037582	          0.00000000	          0.00000000	          0.00000000	          0.00000000	
          1.50000000	         -7.21218062	        427.58967761	        -16.48162223	          1.00045180	          0.00000000	          0.12110456	          0.00000000	          0.00000000	          0.00000000	          0.00000000	          0.00000000	          0.00000000	          0.00000000	          1.69184145	          0.00000000	          0.00000000	          0.00000000	          0.00000000	
          1.50400000	         -7.58447655	        431.68002850	        -15.80925106	          1.00080165	          0.00000000	          0.12102322	          0.00000000	          0.00000000	          0.00000000	          0.00000000	          0.00000000	          0.00000000	          0.00000000	          1.94775879	          0.00000000	          0.00000000	          0.00000000	          0.00000000	
          1.50800000	         -8.84008084	        436.37827106	        -14.42774563	          1.00126712	          0.00000000	          0.12086389	          0.00000000	          0.00000000	          0.00000000	          0.00000000	          0.00000000	          0.00000000	          0.00000000	          2.29297388	          0.00000000	          0.00000000	          0.00000000	          0.00000000	
          1.51200000	        -10.10268560	        441.60123786	        -12.62680243	          1.00171729	          0.00000000	          0.12067229	          0.00000000	          0.00000000	          0.00000000	          0.00000000	          0.00000000	          0.00000000	          0.00000000	          2.67541235	          0.00000000	          0.00000000	          0.00000000	          0.00000000	
          1.51600000	        -10.51371066	        447.25188386	        -10.77886932	          1.00204786	          0.00000000	          0.12049954	          0.00000000	          0.00000000	          0.00000000	          0.00000000	          0.00000000	          0.00000000	          0.00000000	          3.03750521	          0.00000000	          0.00000000	          0.00000000	          0.00000000	
          1.52000000	         -9.46227291	        453.24697884	         -9.27618971	          1.00218579	          0.00000000	          0.12037881	          0.00000000	          0.00000000	          0.00000000	          0.00000000	          0.00000000	          0.00000000	          0.00000000	          3.32916752	          0.00000000	          0.00000000	          0.00000000	          0.00000000	
